<?xml version="1.0" encoding="UTF-8"?>
<svg id="_レイヤー_2" data-name="レイヤー 2" xmlns="http://www.w3.org/2000/svg" viewBox="0 0 14.82 44.94">
  <defs>
    <style>
      .cls-1 {
        fill: #fff;
      }
    </style>
  </defs>
  <g id="contents">
    <g>
      <path class="cls-1" d="M0,3.24C0,1.16,1.2,0,1.76,0c.34,0,.58,.3,.58,.6,0,.18-.08,.36-.26,.5-.62,.44-1,1.16-1,2.14,0,1.14,.64,2,1.5,2,1.06,0,1.46-.86,2.5-3.18,.48-1.1,1.36-1.62,2.22-1.62,1.18,0,2.3,.96,2.3,2.72s-.86,2.78-1.4,2.78c-.32,0-.58-.26-.58-.58,0-.16,.08-.36,.28-.52,.38-.32,.7-.82,.7-1.68,0-1.02-.6-1.6-1.26-1.6-.48,0-.98,.32-1.3,.98-.26,.56-.64,1.48-.96,2.1-.64,1.24-1.58,1.78-2.5,1.78-1.14,0-2.58-.94-2.58-3.18Z"/>
      <path class="cls-1" d="M.04,13.34C.04,10.26,2.38,8.64,4.76,8.64c2.66,0,4.9,1.88,4.9,4.6,0,2.02-1.1,3.34-1.7,3.34-.34,0-.6-.28-.6-.58,0-.18,.08-.36,.28-.52,.66-.52,.98-1.38,.98-2.24,0-1.96-1.62-3.42-3.76-3.42-1.88,0-3.72,1.24-3.72,3.5,0,1,.38,1.98,1.14,2.52,.22,.16,.3,.34,.3,.52,0,.34-.28,.64-.62,.64-.58,0-1.92-1.5-1.92-3.66Z"/>
      <path class="cls-1" d="M.66,20.82c-.36,0-.54-.28-.54-.58,0-.32,.2-.64,.56-.64h.02c1.62,.04,3.5,.08,5.22,.08,1.12,0,2.18-.02,3.06-.04h.02c.32,0,.52,.32,.52,.62s-.18,.6-.56,.6c-.3,0-.44-.02-.72-.02-.06,0-.1,.02-.1,.02,0,.02,.04,.06,.08,.08,1.22,.88,1.34,2.68,1.34,2.92,0,.42-.26,.62-.54,.62s-.58-.22-.58-.62c0-1.42-.9-3-2.44-3.04-.52-.02-1.44-.02-2.58-.02-.82,0-1.76,0-2.74,.02h-.02Z"/>
      <path class="cls-1" d="M4.82,26.16c2.78,0,4.78,1.96,4.78,4.62s-2,4.66-4.78,4.66S.02,33.44,.02,30.78s1.92-4.62,4.8-4.62Zm0,8.1c2.26,0,3.74-1.56,3.74-3.48s-1.48-3.46-3.74-3.46-3.72,1.54-3.72,3.46,1.48,3.48,3.72,3.48Z"/>
      <path class="cls-1" d="M.84,39.74c-.42,0-.62-.3-.62-.62s.2-.62,.62-.62h.02c1.44,.04,4.36,.04,7.1,.04s5.38,0,6.2-.04h.02c.44,0,.64,.32,.64,.64,0,.3-.2,.6-.6,.6h-.02c-.92-.02-3.9-.04-6.92-.04-2.48,0-5,.02-6.42,.04h-.02Z"/>
      <path class="cls-1" d="M.84,44.94c-.42,0-.62-.3-.62-.62s.2-.62,.62-.62h.02c1.44,.04,4.36,.04,7.1,.04s5.38,0,6.2-.04h.02c.44,0,.64,.32,.64,.64,0,.3-.2,.6-.6,.6h-.02c-.92-.02-3.9-.04-6.92-.04-2.48,0-5,.02-6.42,.04h-.02Z"/>
    </g>
  </g>
</svg>