<?xml version="1.0" encoding="UTF-8"?>
<svg id="_レイヤー_2" data-name="レイヤー 2" xmlns="http://www.w3.org/2000/svg" viewBox="0 0 39.64 445.41">
  <defs>
    <style>
      .cls-1 {
        fill: #262222;
      }

      .cls-2 {
        opacity: .8;
      }
    </style>
  </defs>
  <g id="contents">
    <g class="cls-2">
      <path class="cls-1" d="M28.61,33.51c-9.95,0-16.07-6.57-16.07-14.45,0-6.52,3.92-11.12,5.05-12.3,.39-.39,.59-.64,.59-.73,0-.05-.05-.1-.15-.1-.15,0-.39,.05-.78,.2-5.78,1.91-13.91,4.07-14.55,4.07-1.08,0-1.76-.73-1.76-1.47,0-.64,.49-1.27,1.47-1.47,1.08-.25,4.07-.83,5.68-1.22,2.45-.64,6.81-1.62,11.96-3.09,3.48-.98,10.63-2.94,13.92-2.94,1.08,0,1.62,.78,1.62,1.52,0,1.32-.93,1.47-3.77,1.62-2.6,.1-5.29,.59-7.64,1.47-3.28,1.22-8.97,6.81-8.97,13.96,0,6.12,4.17,11.81,12.94,11.81h.88c1.42,0,2.06,.74,2.06,1.52,0,.73-.64,1.62-2.45,1.62Z"/>
      <path class="cls-1" d="M15.83,69.43c.74,0,1.47,.69,1.47,1.47,0,.29-2.25,7.5-6.71,7.5-2.5,0-8.43-3.09-9.31-17.2-.15-2.16-.2-3.19-.2-4.31,0-1.52,.1-2.6,1.42-2.6s1.42,.98,1.42,3.82c0,14.16,5.14,17.2,6.61,17.2,.59,0,2.25-.25,4.07-4.95,.29-.64,.74-.93,1.22-.93Zm18.18-1.13c-.69-4.12-3.04-7.99-6.03-10.09-.39-.25-.54-.64-.54-1.03,0-.64,.49-1.23,1.27-1.23,2.16,0,8.28,7.45,8.28,11.71,0,1.18-.88,1.86-1.67,1.86-.64,0-1.18-.39-1.32-1.22Z"/>
      <path class="cls-1" d="M11.56,112.11c2.99-3.38,8.48-8.33,13.87-8.33,6.37,0,8.53,6.32,8.53,13.33,0,3.09-.49,6.22-1.57,8.48,3.87,2.55,3.87,3.23,3.87,3.77,0,.88-.74,1.57-1.52,1.57-.34,0-.69-.15-.98-.44-.88-.93-1.81-1.86-2.84-2.65-2.3,2.74-5.39,4.02-8.33,4.02-4.07,0-6.96-2.16-6.96-4.85s3.14-4.8,6.96-4.8c2.5,0,5.05,.78,7.4,2.01,.93-2.2,1.27-4.7,1.27-7.15,0-10.88-4.75-10.98-6.12-10.98-4.31,0-10,4.26-13.87,9.7-.2,2.79-.34,5.59-.34,8.18,0,2.74,.15,5.19,.54,7.2,0,.1,.05,.25,.05,.34,0,.88-.78,1.42-1.57,1.42-1.37,0-1.67-.98-1.67-6.42,0-2.4,.15-5.05,.39-7.89-1.22,1.81-2.6,4.07-3.33,5.59-2.79,5.88-2.89,6.12-4.07,6.12-.69,0-1.27-.44-1.27-1.18,0-.29,.1-.59,.29-.93,2.16-3.23,7.25-12.69,8.97-16.32l.25-2.74c-1.52,.49-4.61,1.67-6.08,2.55-.29,.2-.59,.24-.83,.24-.64,0-1.08-.59-1.08-1.22,0-.83,.05-1.37,8.23-4.07,.44-4.36,.78-8.13,.78-10.39,0-.93,.64-1.37,1.32-1.37,.74,0,1.47,.49,1.47,1.27,0,.73-.64,6.42-1.08,9.95,.73,.1,1.22,.59,1.22,1.42,0,.44-.15,1.08-.54,1.76-.34,.64-.83,1.57-1.32,2.6l-.05,.2Zm11.02,12.2c-.29,0-4.61,0-4.61,2.6,0,.2,0,2.6,4.56,2.6,2.3,0,4.65-.93,6.27-3.14-1.96-1.22-4.12-2.06-6.22-2.06Z"/>
      <path class="cls-1" d="M15.83,167.43c.74,0,1.47,.69,1.47,1.47,0,.29-2.25,7.5-6.71,7.5-2.5,0-8.43-3.09-9.31-17.2-.15-2.16-.2-3.19-.2-4.31,0-1.52,.1-2.6,1.42-2.6s1.42,.98,1.42,3.82c0,14.16,5.14,17.2,6.61,17.2,.59,0,2.25-.25,4.07-4.95,.29-.64,.74-.93,1.22-.93Zm18.18-1.13c-.69-4.12-3.04-7.99-6.03-10.09-.39-.25-.54-.64-.54-1.03,0-.64,.49-1.23,1.27-1.23,2.16,0,8.28,7.45,8.28,11.71,0,1.18-.88,1.86-1.67,1.86-.64,0-1.18-.39-1.32-1.22Z"/>
      <path class="cls-1" d="M2.84,218.05c0-1.96,.15-3.97,.34-5.93,.59-5.68,1.86-11.17,2.3-14.16,.15-.83,.74-1.23,1.32-1.23,.69,0,1.32,.49,1.32,1.23v.25c-1.86,9.5-2.74,14.89-2.74,19.55,0,3.48,.59,4.61,.88,4.61,.15,0,.34-.34,.59-.83,.1-.24,1.86-3.63,2.06-3.97,.25-.49,.64-.64,1.03-.64,.59,0,1.18,.49,1.18,1.18,0,.2-.05,.39-.15,.59-1.22,2.21-3.48,6.42-3.48,8.97v.25c0,.15,.05,.25,.05,.39,0,1.32-1.03,1.57-1.37,1.57-2.6,0-3.33-8.87-3.33-11.81Zm24.89,9.46c-7.4,0-10.88-3.09-10.88-4.41,0-.73,.64-1.27,1.37-1.27,.34,0,.69,.1,1.03,.44,1.86,1.76,4.75,2.4,7.74,2.4,2.2,0,4.51-.34,6.32-.78,.2-.05,.39-.05,.54-.05,.98,0,1.47,.64,1.47,1.32s-.44,1.37-1.37,1.62c-1.86,.44-4.02,.73-6.22,.73Zm4.07-23.52c-1.76-.39-3.72-.64-5.73-.64-2.2,0-4.51,.29-6.81,.88-.1,.05-.2,.05-.29,.05-.73,0-1.27-.69-1.27-1.37,0-.54,.34-1.08,1.13-1.27,2.35-.64,5.24-.93,7.84-.93,6.37,0,6.81,1.08,6.81,1.96,0,.69-.49,1.37-1.32,1.37-.1,0-.2,0-.34-.05Z"/>
      <path class="cls-1" d="M38.17,246.76c-.44,0-.88-.2-1.18-.64-1.42-2.16-4.66-4.56-7.06-5.78-.54-.25-.74-.74-.74-1.18,0-.64,.49-1.22,1.27-1.22,1.57,0,9.16,5,9.16,7.4,0,.83-.74,1.42-1.47,1.42Z"/>
      <path class="cls-1" d="M14.06,326.14c-1.08,0-1.62-.69-1.62-1.37,0-.73,.54-1.47,1.52-1.62,14.06-1.91,19.75-8.72,19.75-13.82,0-4.26-3.87-7.79-10.58-7.79-4.61,0-10.34,2.35-13.08,3.67-2.25,1.08-4.65,2.3-7.1,3.43-.39,.2-.73,.25-1.03,.25-.93,0-1.52-.69-1.52-1.47,0-.59,.34-1.22,1.18-1.57,2.16-.88,4.66-2.06,7.3-3.14,7.54-3.09,11.46-3.63,14.5-3.63,8.57,0,13.28,5,13.28,10.34,0,3.33-1.81,6.91-5.44,9.9-6.32,5.24-16.07,6.81-17.15,6.81Z"/>
      <path class="cls-1" d="M22.05,377.15c-2.4-5.44-7.2-12.25-10.73-16.36-1.42-1.67-2.16-3.23-2.16-4.8,0-1.67,.83-3.33,2.69-5.19,3.48-3.48,7.69-7.3,10.44-11.42,.39-.59,.88-.83,1.37-.83,.83,0,1.57,.69,1.57,1.57,0,.34-.1,.73-.39,1.08-3.09,3.92-7.35,7.69-10.97,11.27-1.32,1.32-1.96,2.35-1.96,3.43,0,.98,.54,1.91,1.47,3.14,4.41,5.54,8.82,10.88,11.56,16.46,.15,.34,.25,.64,.25,.93,0,.98-.88,1.71-1.71,1.71-.59,0-1.13-.29-1.42-.98Z"/>
      <path class="cls-1" d="M29.2,414.59c0-4.46-4.02-6.42-8.33-6.42-5,0-10.29,2.6-13.03,6.42-.29,.44-.78,.64-1.22,.64-.78,0-1.52-.59-1.52-1.37,0-.39,.2-.88,.69-1.37,8.77-8.62,16.46-17.59,16.46-18.03,0-.05-.05-.1-.15-.1s-.2,0-.34,.05c-2.65,.83-10.93,2.5-11.22,2.5-.93,0-1.47-.64-1.47-1.32,0-.59,.44-1.22,1.37-1.32,3.43-.39,9.11-1.62,11.61-2.25,.39-.1,.78-.15,1.13-.15,1.37,0,2.35,.73,2.35,1.86,0,.93-.29,1.62-5.78,7.35l-6.76,7.01c2.45-1.27,5.54-2.06,8.57-2.06,6.66,0,10.39,3.87,10.39,8.43,0,6.08-5.68,11.27-13.57,11.27-5.73,0-9.01-2.65-9.01-5.59,0-1.86,1.42-4.21,5.34-4.21,3.38,0,6.27,2.2,6.27,6.96v.34c4.66-.78,8.23-4.61,8.23-8.62Zm-10.73,8.53c0-3.23-1.32-5.1-3.63-5.1-2.79,0-3.09,1.81-3.09,2.11,0,1.67,2.16,3.33,6.03,3.33h.69v-.34Z"/>
      <path class="cls-1" d="M33.86,445.41c-3.14,0-5.68-2.5-5.68-5.63s2.55-5.68,5.68-5.68,5.68,2.55,5.68,5.68-2.55,5.63-5.68,5.63Zm0-9.55c-2.16,0-3.97,1.76-3.97,3.92s1.81,3.97,3.97,3.97,3.97-1.81,3.97-3.97-1.81-3.92-3.97-3.92Z"/>
    </g>
  </g>
</svg>