<?xml version="1.0" encoding="UTF-8"?>
<svg id="_レイヤー_2" data-name="レイヤー 2" xmlns="http://www.w3.org/2000/svg" viewBox="0 0 102.84 91.3">
  <defs>
    <style>
      .cls-1 {
        fill: #fff;
      }
    </style>
  </defs>
  <g id="contents">
    <g>
      <path class="cls-1" d="M51.66,56.16c-1.51,.54-2.48,.93-3.39,.93-1.05,0-2.11,.31-3.54,.23-1.43-.16-2.56-.16-4.44-.7-1.28-.46-1.13-1.24-2.18-1.16-1.05-.62-.75-.93-1.73-1.7-.75-1.01-1.43-2.63-1.73-4.03-.53-1.78-.45-2.71-.53-4.42,.68-.85-.23-1.47-.15-2.09-.38-1.63,0-3.8-.6-4.88-.3-1.08-.6-3.1-1.51-4.57-.83-1.39-1.43-2.94-2.86-3.41-1.51-.39-2.63-1.32-4.74-1.24-1.05-.08-2.26-.15-3.99,0-.75,.08-.98,.62-1.28,1.55-.08,1.16,.08,3.1,0,4.8,.08,1.01-.68,2.09,0,3.18,.23,1.47-.53,2.17-.23,2.79,.45,1.32-.53,2.01,.23,3.56,.45,1.55-.45,2.17,0,3.25,0,1.78,.15,2.94,0,4.26-.15,.62,.83,1.78,2.41,1.63,.83,.31,1.58,.08,2.56,.16,.68,.08,1.28-.23,1.96,.08,1.05,.46,.9,2.25-.08,2.32-.83,.23-1.73-.08-2.26,0-.53,.16-1.43-.08-2.26,0-.68,.16-1.05-.77-1.81,0-1.58,.31-2.26-.39-2.94-.08-1.05,.46-2.11-.39-3.16,.16-1.05-.08-2.18,.39-3.31,0-1.36-.47-1.88,0-3.31,0-.98,0-2.26-.08-3.16,0-.68,.08-1.58,0-2.41,0-1.13,.39-2.18-2.71,.3-2.48,1.73,.16,2.64,.08,4.07,.08,.9,.15,1.96-.16,2.03-1.39,.3-1.78,.53-2.01,.3-3.72,.23-1.39,.23-2.32,.23-4.18,.83-2.17-.3-2.79,0-4.26,.38-1.94-.23-4.96,.15-7.2,.23-1.32-.15-3.02-.23-5.19-.23-1.32,.9-2.94,.08-4.49,.08-1.86-.3-3.56,0-5.35,.38-2.09-.23-2.87,.15-4.57,.9-1.24-.3-1.94-.3-3.33,.23-1.08,.08-4.49,.08-5.96-.08-1.01-.98-1.86-1.66-1.86-1.13-.31-3.61-.16-4.44-.23C.92,2.87,.16,1.55,.99,.47c.6-.47,1.28-.16,1.58-.16,.9,0,1.36,.31,3.01,.16,1.2-.23,2.26,.23,3.16,.15,1.66-.08,3.39,.16,4.74-.08,1.28,0,3.24-.46,4.74-.15,1.66,.08,2.94-.16,4.97-.39,1.81,0,2.64,.08,4.59,.16,1.51,.16,2.03-.16,3.69,.16,1.51,.23,2.56-.08,3.61,.62,1.43,.39,2.79,.46,3.46,1.39,.98,1.01,1.81,1.08,3.01,2.17,.68,.39,.3,1.32,1.58,2.01,.98,.93,.53,1.78,1.13,2.25,.9,1.63,.83,2.87,.98,4.96,.15,1.16,.08,2.71-.75,4.42-.98,.93-.75,2.32-2.03,3.64-.75,1.01-1.73,1.7-3.01,2.79-1.43,.77-2.56,1.16-3.91,1.94-.45,.31-1.66,.46-2.03,.54-1.96,.23-2.41,1.16-.75,1.78,1.13,.23,2.71,1.08,3.61,1.08,1.28,.16,1.13,1.08,2.48,1.39,.98,.31,1.81,.77,2.94,2.4,.68,.93,1.73,2.56,1.66,3.49,.15,.7,.45,2.17,.83,3.72,.3,1.39,.3,2.63,.3,4.03-.23,.85-.45,1.24,0,2.17,.23,1.01,.3,2.87,.53,4.49,.6,.77,.3,1.39,1.05,1.86,.9,.7,1.28,1.08,2.26,.93,1.28-.16,1.66-.23,2.86-.7,.68-.31,1.81,1.94,.38,2.48ZM32.31,23.16c1.36-1.55,1.28-2.63,2.11-3.95,.3-1.78,.6-2.79,.75-5.04,.23-1.16-.38-1.78-.23-2.87,.15-1.01-.6-1.24-.68-2.48-.08-1.39-.75-.85-1.05-2.09-.3-1.24-.9-1.16-1.43-1.7-1.05-1.39-2.86-2.01-3.92-2.17-1.88-.7-3.31-.7-5.19-.77-1.96-.08-2.41,.23-3.09,.62-.6,.46-.83,1.55-.6,2.79-.08,1.16,.23,2.4-.15,3.18-.68,1.32,.23,1.55-.08,2.48-.38,1.39,.3,1.63,.15,2.25-.23,1.08,0,1.78,.08,2.71,.23,.93-.53,2.79,0,4.03,.38,1.32-.23,3.25,0,3.95,.08,1.78,.6,2.25,1.43,2.48,1.66,.31,2.71-.08,4.29,.08,2.03-.08,3.24-.54,4.14-.85,.98-.7,2.26-1.01,3.46-2.63Z"/>
      <path class="cls-1" d="M67.38,91.18c-1.88,.08-2.71,0-3.84-.08-.6-.62-1.43,0-2.11,0-.75,0-2.18-.08-3.54-.16-1.13,.23-2.03-.54-3.31,0-1.2,.54-1.88-.23-3.39,0-1.43,.16-1.88-.08-3.16,.08-1.58,.54-1.51-.23-2.71,.23-1.2,.08-1.66,0-2.86,0-2.79,0-1.73-2.94-.38-2.48,1.73,0,2.94-.08,4.52-.08,1.2,.08,2.26-.54,2.26-1.24-.08-1.78,.15-3.49,.15-5.11,.23-.93-.3-2.17,0-3.25,.08-1.47-.08-1.63,0-3.25-.45-.85,.15-2.09,0-3.25-.38-1.16-.23-2.17,0-3.25,.3-1.55,0-1.63,0-3.25-.45-.77-.15-2.17,0-3.25,.15-1.47-.3-1.78,0-3.25,.08-1.47-.53-2.48,0-3.25,0-1.16-.08-2.25,0-3.33-.23-.85-.45-2.4,0-3.25,.23-.93-.23-2.4,0-3.25-.15-1.47-.45-2.17-.15-3.72,.15-1.78-.15-2.56-.15-3.64,.23-1.32-.75-1.86-1.73-2.01-1.96-.31-3.39-.08-4.67-.08-1.43,.08-2.03-2.01-.53-2.32,1.28-.39,2.03,0,3.54,0,1.43-.23,2.18,.16,2.86,0,.9-.46,1.51,.46,3.01-.08,.83-.39,2.71,.39,3.39,0,1.13-.23,1.88,.16,3.31,0,.6-.23,2.26,.46,3.39,0,1.51-.31,2.56,.08,3.31,0,.9-.23,1.51-.08,2.64,0,1.05,.08,.83,2.4-.15,2.4-1.51,.08-3.39-.23-5.04-.23-1.13,.08-1.81,.7-1.88,1.63-.23,1.7-.15,3.41-.07,4.88-.23,.77-.83,2.25-.15,3.18,.38,.62-.45,1.94,.08,3.1,.08,1.55-.68,1.55,0,3.18-.08,1.63,.15,2.56,0,4.11-.9,1.16-.15,1.39-.08,2.87,.08,1.32-.68,1.78,.08,3.1,.15,.77-.38,1.86,0,3.25-.08,.85,.3,3.02,0,3.95-.38,.93,.23,2.17-.08,3.41-.3,1.32,.45,1.32,.23,2.4-.6,1.01,.08,2.09,0,3.25-.9,1.55,.08,2.48,0,3.25-.15,1.32,0,3.64,0,4.88-.53,1.08,1.51,1.63,2.71,1.63,1.96,0,2.33-.31,4.07,0,1.2,0,1.36,2.48,.45,2.32Z"/>
      <path class="cls-1" d="M64.79,60.71c0-1.7,.9-2.09,.15-3.1,0-.7,.15-3.02,0-4.18-.53-1.24,.3-4.42-.15-5.65,0-1.86,.83-2.32,.15-3.64-.3-2.01,.15-3.1,0-4.65-.07-1.39,.45-2.94,.08-4.26-.38-2.01,1.2-2.48-.15-3.8-.08-.7-.08-1.63-.08-2.79,.6-1.08,.08-1.63,.15-2.56,.08-1.01,.45-1.55,0-2.94-.3-.93,.08-2.25,0-2.94,.23-1.78-.38-3.87-1.43-3.56-.83-.23-1.73,0-2.64,0-1.28-.08-2.03-2.4,.15-2.71,1.43-.08,2.03,.16,2.94,.08,1.28-.39,2.48-.08,3.39-.46,1.43-.54,1.88,0,3.09-.85,.83-.54,1.28-.31,2.71-1.16,.9-.54,2.56,.46,2.11,1.32,.23,.85-.23,1.55-.23,3.1s-.08,2.94-.15,4.03c-.83,.7-.08,2.25-.15,3.18-.08,.93,.3,1.86,0,2.87,0,1.08,.38,2.32-.15,3.41-.6,1.16,.15,1.47,.15,2.63-.08,1.47-.75,2.32-.15,3.56,.38,.77-.3,1.39,.15,2.48,.38,1.08-.6,1.55-.15,2.32,.53,.93,.23,2.17,.08,3.02v4.11c0,1.01,.98,1.32,1.66,.77,.9-.16,1.28-.77,1.88-1.32,1.36-.85,1.58-1.55,2.41-2.17,1.2-1.32,2.26-1.94,3.09-2.87,.6-.46,1.43-1.24,2.56-2.56,.15-.46,.75-.77,.75-1.24,.08-.77-.98-.93-1.43-.77-1.13,.16-1.43,0-2.33,.08-.83,0-1.36-1.24-.68-2.09,.45-.54,1.28-.47,1.88-.31,1.05,.31,1.73,0,2.18,.08,.75,0,1.43-.16,3.31,0,.98-.16,1.96,.16,3.54-.08,.45,.16,1.28-.16,1.96-.08,.75,.08,1.36-.15,1.81,.08,.68,.31,.83,2.01,.08,2.25-.53,.46-1.36,.15-1.81,.23-.75,.08-.98-.16-1.58,0-.98-.08-1.88,.31-2.48,.77-.23,.16-.38,.23-.6,.39-.68,.39-.6,.7-1.43,1.32-.3,.16-.68,.62-1.13,1.16-.53,.54-1.05,1.16-1.51,1.32-1.36,1.16-1.88,1.63-2.48,2.32-.98,.47-.83,1.63-.3,2.32,.6,1.32,1.13,1.86,1.58,2.71,.68,.85,.98,1.94,1.81,2.63,.75,1.47,1.05,1.94,1.96,3.02,.68,.93,.6,1.47,1.73,2.48,.38,.31,.15,1.16,.98,1.63,.68,.31-.23,.93,1.13,1.32,.68,.77,.38,1.08,1.13,1.7,.53,.31,.45,1.55,1.36,2.01,.3,.7,.9,1.01,1.36,1.78,.23,.62,.75,.93,1.43,1.47,.9,.31,1.66,.31,2.33,.23,.6,0,1.28-.08,1.73,.39,.68,.7,.23,2.01-.53,2.01-.75,.16-1.96,0-2.56,.08-1.05,.08-1.73-.08-2.63,0-1.51,.08-2.18-.08-3.76-.08s-1.96-.39-2.33,0c-.98,0-3.46,.08-4.44,.08h-2.41c-1.96,.16-1.36-2.32-.83-2.32,.83-.23,1.43-.08,2.33-.08,1.43-.16,.9-1.01,.45-1.86-.53-.62-.83-1.32-1.36-2.01-.08-1.24-.98-1.39-1.36-2.01-.45-.31-.83-1.47-1.35-2.01-.38-.31-.38-1.08-1.36-2.09-.6-.16-.6-.93-1.51-2.17,0-1.16-.75-1.08-1.35-1.78-.15-.31-.38-.93-1.2-1.32-.6-.31-1.58,.47-1.66,1.32-.08,1.24-.3,1.7,.08,3.02-.23,1.7,.45,3.02,0,4.73-.23,.93,.15,2.94,.08,4.18-.3,1.08,.38,1.63,1.13,1.94,1.2,.08,1.66,0,2.48,0,1.05,0,1.05,2.48,.3,2.32-.9,.31-1.88,0-2.48,.08-.83,.16-1.73,0-2.94-.08-1.73,.23-2.03-.08-3.84,.16-2.18-.08-3.09-.31-4.14-.08-.83,.16-1.43-.16-2.41,.08-.83,.23-1.2-.16-2.56,0-1.43,.08-1.28-2.32-.15-2.4,.53-.16,1.05,.15,2.26,0,.23-.08,1.2,.15,1.73-.47,.9-.7,.45-1.78,.68-3.18l-.08-3.87Z"/>
    </g>
  </g>
</svg>