<?xml version="1.0" encoding="UTF-8"?>
<svg id="_レイヤー_2" data-name="レイヤー 2" xmlns="http://www.w3.org/2000/svg" viewBox="0 0 526.81 376.81">
  <defs>
    <style>
      .cls-1 {
        fill: #262222;
      }
    </style>
  </defs>
  <g id="text">
    <g>
      <g>
        <path class="cls-1" d="M32.31,254.5l-11.57-16.06c-1.63,.33-3.45,.46-5.33,.46H1.3v15.6H0v-45.5H15.41c11.18,0,17.88,5.53,17.88,14.95,0,7.35-4.1,12.35-11.18,14.17l11.83,16.38h-1.62Zm-16.77-16.84c10.66,0,16.45-5.01,16.45-13.72s-5.79-13.72-16.45-13.72H1.3v27.43H15.54Z"/>
        <path class="cls-1" d="M76.83,253.26v1.23h-30.29v-45.5h29.32v1.24h-28.02v20.54h25.09v1.24h-25.09v21.26h28.99Z"/>
        <path class="cls-1" d="M89.96,209h1.3v45.5h-1.3v-45.5Z"/>
        <path class="cls-1" d="M121.16,230.77l-11.31,11.64v12.09h-1.3v-45.5h1.3v31.66l30.81-31.66h1.76l-20.28,20.87,21.78,24.64h-1.76l-21-23.73Z"/>
        <path class="cls-1" d="M179.6,240.78h-27.82l-6.37,13.72h-1.5l21.13-45.5h1.3l21.13,45.5h-1.5l-6.37-13.72Zm-.58-1.24l-13.33-28.8-13.33,28.8h26.65Z"/>
        <path class="cls-1" d="M257.79,209v45.5h-1.3v-42.71l-20.74,36.27h-.78l-20.74-36.14v42.58h-1.3v-45.5h1.1l21.32,37.31,21.32-37.31h1.1Z"/>
        <path class="cls-1" d="M275.08,209h1.3v45.5h-1.3v-45.5Z"/>
        <path class="cls-1" d="M293.28,235.45v-26.46h1.3v26.39c0,12.16,5.92,18.07,16.25,18.07s16.25-5.92,16.25-18.07v-26.39h1.3v26.46c0,12.87-6.7,19.24-17.55,19.24s-17.55-6.37-17.55-19.24Z"/>
        <path class="cls-1" d="M377.58,254.5l-11.57-16.06c-1.62,.33-3.44,.46-5.33,.46h-14.11v15.6h-1.3v-45.5h15.41c11.18,0,17.88,5.53,17.88,14.95,0,7.35-4.1,12.35-11.18,14.17l11.83,16.38h-1.62Zm-16.77-16.84c10.66,0,16.45-5.01,16.45-13.72s-5.79-13.72-16.45-13.72h-14.24v27.43h14.24Z"/>
        <path class="cls-1" d="M419.44,240.78h-27.82l-6.37,13.72h-1.5l21.13-45.5h1.3l21.13,45.5h-1.5l-6.37-13.72Zm-.58-1.24l-13.33-28.8-13.33,28.8h26.65Z"/>
      </g>
      <g>
        <path class="cls-1" d="M75.61,66.41c0,17.51-13.61,27.09-36.92,27.09H0L17.64,5.29H53.3c16,0,25.96,6.17,25.96,18.02,0,13.61-8.82,22.05-20.79,24.95,10.84,1.76,17.14,7.81,17.14,18.15Zm-4.28,.25c0-11.59-8.06-16.13-23.69-16.13H12.85l-7.81,39.19H39.32c20.54,0,32.01-8.19,32.01-23.06ZM13.61,46.87h31.63c17.26,0,29.61-7.81,29.61-22.93,0-9.95-8.06-14.87-22.05-14.87H21.17l-7.56,37.8Z"/>
        <path class="cls-1" d="M134.95,27.6l-.76,4.16h-1.51c-15.62,0-25.71,9.58-29.36,27.85l-6.8,33.9h-4.16l12.98-65.4h4.16l-3.02,15.25c5.67-10.08,14.87-15.75,28.48-15.75Z"/>
        <path class="cls-1" d="M137.97,67.04c0-22.56,15.5-39.44,37.17-39.44,17.39,0,28.35,10.46,28.35,26.97,0,22.56-15.5,39.31-37.17,39.31-17.39,0-28.35-10.33-28.35-26.84Zm61.37-12.35c0-14.74-9.07-23.19-24.57-23.19-18.77,0-32.64,15-32.64,35.41,0,14.74,9.07,23.19,24.7,23.19,18.78,0,32.51-14.87,32.51-35.41Z"/>
        <path class="cls-1" d="M286.78,28.1l-12.98,65.4h-4.16l3.02-14.87c-6.3,9.45-16.63,15.25-29.23,15.25-17.01,0-28.1-10.21-28.1-26.84,0-22.56,15.5-39.44,37.05-39.44,14.74,0,23.94,7.06,26.46,19.28l3.78-18.77h4.16Zm-10.08,26.59c0-14.74-9.07-23.19-24.57-23.19-18.77,0-32.64,15-32.64,35.41,0,14.74,9.07,23.19,24.7,23.19,18.78,0,32.51-14.87,32.51-35.41Z"/>
        <path class="cls-1" d="M377.25,0l-18.65,93.5h-4.16l3.02-14.87c-6.3,9.45-16.63,15.25-29.23,15.25-17.01,0-28.1-10.21-28.1-26.84,0-22.56,15.5-39.44,37.05-39.44,14.74,0,23.94,7.18,26.46,19.41L373.09,0h4.16Zm-15.75,54.69c0-14.74-9.07-23.19-24.57-23.19-18.77,0-32.64,15-32.64,35.41,0,14.74,9.07,23.19,24.7,23.19,18.78,0,32.51-14.87,32.51-35.41Z"/>
        <path class="cls-1" d="M389.34,61.37c-.13,1.76-.25,3.53-.25,5.29,0,15.12,8.82,23.44,25.58,23.44,9.58,0,17.89-3.53,23.19-9.32l2.02,2.9c-5.42,6.3-14.99,10.21-25.58,10.21-18.27,0-29.23-9.95-29.23-27.09,0-22.3,14.99-39.19,35.28-39.19,16.76,0,27.09,10.21,27.09,26.97,0,2.39-.25,4.79-.63,6.8h-57.46Zm.63-3.53h53.43c.13-1.39,.25-2.77,.25-4.03,0-14.49-9.7-22.43-23.44-22.43-15.25,0-27.09,10.71-30.24,26.46Z"/>
        <path class="cls-1" d="M526.81,48.13c0,2.27-.25,4.54-.76,7.06l-7.69,38.31h-4.16l7.69-38.31c.5-2.27,.63-4.41,.63-6.43,0-10.84-6.55-17.26-19.66-17.26-15.88,0-26.97,8.95-30.37,25.96l-7.18,36.04h-4.16l12.98-65.4h4.16l-2.77,14.11c6.43-10.08,16.38-14.62,28.23-14.62,15.25,0,23.06,8.06,23.06,20.54Z"/>
      </g>
      <g>
        <path class="cls-1" d="M29.7,303.5l-7.2,21h-.6l-7.05-20.16-7.05,20.16h-.6l-7.2-21H.66l6.87,20.04,7.02-20.04h.6l7.05,20.1,6.87-20.1h.63Z"/>
        <path class="cls-1" d="M45.39,316.73h-13.8c0,4.29,3.06,7.29,7.17,7.29,2.07,0,4.05-.78,5.28-2.4l.42,.42c-1.38,1.68-3.48,2.55-5.7,2.55-4.47,0-7.74-3.27-7.74-7.86s3.06-7.83,7.17-7.83,7.2,3.18,7.2,7.68v.15Zm-13.8-.57h13.23c-.21-3.84-2.97-6.69-6.63-6.69s-6.39,2.85-6.6,6.69Z"/>
        <path class="cls-1" d="M65.52,316.73c0,4.59-3.27,7.86-7.53,7.86-3.24,0-5.88-1.89-6.93-4.83v4.74h-.6v-22.26h.6v11.46c1.05-2.91,3.69-4.8,6.93-4.8,4.26,0,7.53,3.24,7.53,7.83Zm-.6,0c0-4.29-2.97-7.26-6.93-7.26s-6.93,2.97-6.93,7.26,2.97,7.29,6.93,7.29,6.93-3,6.93-7.29Z"/>
        <path class="cls-1" d="M91.32,302.24v22.26h-.6v-4.74c-1.05,2.94-3.69,4.83-6.93,4.83-4.26,0-7.53-3.27-7.53-7.86s3.27-7.83,7.53-7.83c3.24,0,5.88,1.89,6.93,4.8v-11.46h.6Zm-.6,14.49c0-4.29-2.97-7.26-6.93-7.26s-6.93,2.97-6.93,7.26,2.97,7.29,6.93,7.29,6.93-3,6.93-7.29Z"/>
        <path class="cls-1" d="M110.76,316.73h-13.8c0,4.29,3.06,7.29,7.17,7.29,2.07,0,4.05-.78,5.28-2.4l.42,.42c-1.38,1.68-3.48,2.55-5.7,2.55-4.47,0-7.74-3.27-7.74-7.86s3.06-7.83,7.17-7.83,7.2,3.18,7.2,7.68v.15Zm-13.8-.57h13.23c-.21-3.84-2.97-6.69-6.63-6.69s-6.39,2.85-6.6,6.69Z"/>
        <path class="cls-1" d="M113.34,322.46l.36-.48c1.11,1.08,3.21,2.04,5.7,2.04,3.69,0,5.16-1.41,5.16-3.45,0-5.19-10.62-1.65-10.62-7.68,0-2.07,1.65-3.99,5.49-3.99,1.92,0,3.96,.63,5.13,1.59l-.36,.48c-1.23-.99-3.03-1.5-4.77-1.5-3.42,0-4.86,1.5-4.86,3.42,0,5.34,10.59,1.83,10.59,7.68,0,2.34-1.89,4.02-5.76,4.02-2.52,0-4.89-.9-6.06-2.13Z"/>
        <path class="cls-1" d="M129.24,303.92c0-.42,.36-.78,.78-.78s.78,.36,.78,.78-.36,.78-.78,.78-.78-.36-.78-.78Zm.48,5.07h.6v15.51h-.6v-15.51Z"/>
        <path class="cls-1" d="M150.63,308.99v14.13c0,5.01-2.37,7.29-7.17,7.29-2.82,0-5.4-.96-6.87-2.58l.42-.42c1.59,1.56,3.84,2.43,6.45,2.43,4.47,0,6.57-2.04,6.57-6.63v-3.9c-1.05,2.82-3.69,4.68-7.02,4.68-4.35,0-7.62-3.15-7.62-7.56s3.27-7.53,7.62-7.53c3.33,0,5.97,1.83,7.02,4.62v-4.53h.6Zm-.6,7.44c0-4.11-2.97-6.96-7.02-6.96s-7.02,2.85-7.02,6.96,2.97,6.99,7.02,6.99,7.02-2.88,7.02-6.99Z"/>
        <path class="cls-1" d="M170.85,315.35v9.15h-.6v-9.15c0-3.84-2.07-5.88-5.58-5.88-4.08,0-6.54,2.67-6.54,6.6v8.43h-.6v-15.51h.6v4.14c.93-2.58,3.21-4.23,6.51-4.23,3.81,0,6.21,2.25,6.21,6.45Z"/>
        <path class="cls-1" d="M.42,360.4c0-6.06,4.62-10.59,10.77-10.59,2.76,0,5.34,.87,7.14,2.67l-.36,.42c-1.92-1.83-4.23-2.52-6.78-2.52-5.79,0-10.17,4.35-10.17,10.02s4.38,10.02,10.17,10.02c2.55,0,4.86-.72,6.78-2.55l.36,.42c-1.8,1.8-4.38,2.7-7.14,2.7-6.15,0-10.77-4.53-10.77-10.59Z"/>
        <path class="cls-1" d="M20.85,363.13c0-4.59,3.21-7.83,7.53-7.83s7.53,3.24,7.53,7.83-3.21,7.86-7.53,7.86-7.53-3.27-7.53-7.86Zm14.46,0c0-4.29-2.97-7.26-6.93-7.26s-6.93,2.97-6.93,7.26,2.97,7.29,6.93,7.29,6.93-3,6.93-7.29Z"/>
        <path class="cls-1" d="M47.67,355.3v.6h-.18c-3.72,0-5.91,2.55-5.91,6.66v8.34h-.6v-15.51h.6v4.02c.87-2.61,2.97-4.11,6.09-4.11Z"/>
        <path class="cls-1" d="M65.25,348.64v22.26h-.6v-4.74c-1.05,2.94-3.69,4.83-6.93,4.83-4.26,0-7.53-3.27-7.53-7.86s3.27-7.83,7.53-7.83c3.24,0,5.88,1.89,6.93,4.8v-11.46h.6Zm-.6,14.49c0-4.29-2.97-7.26-6.93-7.26s-6.93,2.97-6.93,7.26,2.97,7.29,6.93,7.29,6.93-3,6.93-7.29Z"/>
        <path class="cls-1" d="M71.67,350.32c0-.42,.36-.78,.78-.78s.78,.36,.78,.78-.36,.78-.78,.78-.78-.36-.78-.78Zm.48,5.07h.6v15.51h-.6v-15.51Z"/>
        <path class="cls-1" d="M92.97,361.75v9.15h-.6v-9.15c0-3.84-2.07-5.88-5.58-5.88-4.08,0-6.54,2.67-6.54,6.6v8.43h-.6v-15.51h.6v4.14c.93-2.58,3.21-4.23,6.51-4.23,3.81,0,6.21,2.25,6.21,6.45Z"/>
        <path class="cls-1" d="M113.1,355.39v14.13c0,5.01-2.37,7.29-7.17,7.29-2.82,0-5.4-.96-6.87-2.58l.42-.42c1.59,1.56,3.84,2.43,6.45,2.43,4.47,0,6.57-2.04,6.57-6.63v-3.9c-1.05,2.82-3.69,4.68-7.02,4.68-4.35,0-7.62-3.15-7.62-7.56s3.27-7.53,7.62-7.53c3.33,0,5.97,1.83,7.02,4.62v-4.53h.6Zm-.6,7.44c0-4.11-2.97-6.96-7.02-6.96s-7.02,2.85-7.02,6.96,2.97,6.99,7.02,6.99,7.02-2.88,7.02-6.99Z"/>
      </g>
    </g>
  </g>
</svg>